<svg width="174" height="50" viewBox="0 0 174 50" fill="none" xmlns="http://www.w3.org/2000/svg">
<g id="Logo">
<path id="Vector" d="M40.4396 48.7149C31.1212 48.7149 23.5474 41.1139 23.5474 31.7783C23.5474 22.4427 31.1284 14.8418 40.4396 14.8418C49.7508 14.8418 57.3318 22.4427 57.3318 31.7783C57.3318 41.1139 49.7508 48.7149 40.4396 48.7149ZM40.4396 21.0607C34.5456 21.0607 29.75 25.8689 29.75 31.7783C29.75 37.6878 34.5456 42.4959 40.4396 42.4959C46.3336 42.4959 51.1292 37.6878 51.1292 31.7783C51.1292 25.8689 46.3336 21.0607 40.4396 21.0607Z" fill="black"/>
<g id="Group">
<path id="Vector_2" d="M82.5875 33.8731C73.2692 33.8731 65.6953 26.2721 65.6953 16.9365C65.6953 7.60092 73.2764 0 82.5875 0C91.8987 0 99.4798 7.60092 99.4798 16.9365C99.4798 26.2721 91.8987 33.8731 82.5875 33.8731ZM82.5875 6.21895C76.6936 6.21895 71.898 11.0271 71.898 16.9365C71.898 22.846 76.6936 27.6541 82.5875 27.6541C88.4815 27.6541 93.2771 22.846 93.2771 16.9365C93.2771 11.0271 88.4815 6.21895 82.5875 6.21895Z" fill="black"/>
<path id="Vector_3" d="M71.898 17.6201H65.6953V48.7148H71.898V17.6201Z" fill="black"/>
</g>
<path id="Vector_4" d="M136.954 48.7151H130.005L122.503 33.6644L116.874 40.5455L111.253 33.6644L103.744 48.7151H96.8232L109.99 22.3062L116.874 30.742L123.78 22.3062L136.954 48.7151Z" fill="black"/>
<g id="Group_2">
<path id="Vector_5" d="M11.0342 48.7149C8.75122 48.7149 5.48477 48.2902 3.0439 46.2245C1.65835 45.0512 0 42.8631 0 39.1418V1.43945H6.20267V39.1418C6.20267 40.5885 6.67649 41.1644 7.03544 41.4667C8.38509 42.6255 11.4146 42.5823 12.6638 42.3808L13.6832 48.5134C13.4319 48.5566 12.4125 48.7149 11.027 48.7149H11.0342Z" fill="black"/>
<path id="Vector_6" d="M16.2603 15.9502H2.18945V22.1691H16.2603V15.9502Z" fill="black"/>
</g>
<g id="Group_3">
<path id="Vector_7" d="M116.939 22.2846C111.526 22.2846 107.118 17.8651 107.118 12.438C107.118 7.01078 111.526 2.59131 116.939 2.59131C122.352 2.59131 126.76 7.01078 126.76 12.438C126.76 17.8651 122.352 22.2846 116.939 22.2846ZM116.939 3.6278C112.093 3.6278 108.152 7.57941 108.152 12.438C108.152 17.2965 112.093 21.2481 116.939 21.2481C121.785 21.2481 125.726 17.2965 125.726 12.438C125.726 7.57941 121.785 3.6278 116.939 3.6278Z" fill="#68EDCB"/>
<path id="Vector_8" d="M126.243 13.9926C125.389 13.9926 124.692 13.2944 124.692 12.4378C124.692 8.14791 121.218 4.66416 116.939 4.66416C112.66 4.66416 109.186 8.14791 109.186 12.4378C109.186 13.2944 108.489 13.9926 107.635 13.9926C106.781 13.9926 106.084 13.2944 106.084 12.4378C106.084 6.43482 110.952 1.55469 116.939 1.55469C122.926 1.55469 127.794 6.43482 127.794 12.4378C127.794 13.2944 127.097 13.9926 126.243 13.9926Z" fill="#68EDCB"/>
</g>
<path id="Vector_9" d="M171.801 29.8853C170.796 22.0828 164.12 16.0366 156.065 16.0366C147.314 16.0366 140.199 23.1769 140.199 31.9439C140.199 40.7108 147.314 47.8511 156.065 47.8511C159.913 47.8511 163.624 46.4547 166.518 43.9139L163.919 40.9412C161.743 42.8486 158.958 43.8995 156.065 43.8995C150.135 43.8995 145.203 39.5376 144.291 33.8441H171.816C171.895 33.2179 171.93 32.5845 171.93 31.9511C171.93 31.2529 171.887 30.5691 171.794 29.8925L171.801 29.8853ZM144.327 29.8853C145.304 24.271 150.2 19.9954 156.072 19.9954C161.944 19.9954 166.841 24.2781 167.817 29.8853H144.327Z" fill="black" stroke="black" stroke-width="3" stroke-miterlimit="10"/>
</g>
</svg>
