<svg width="84" height="25" viewBox="0 0 84 25" fill="none" xmlns="http://www.w3.org/2000/svg">
<path d="M19.5223 24C15.0238 24 11.3675 20.2553 11.3675 15.656C11.3675 11.0567 15.0273 7.31204 19.5223 7.31204C24.0173 7.31204 27.6771 11.0567 27.6771 15.656C27.6771 20.2553 24.0173 24 19.5223 24ZM19.5223 10.3759C16.6769 10.3759 14.3619 12.7447 14.3619 15.656C14.3619 18.5674 16.6769 20.9362 19.5223 20.9362C22.3676 20.9362 24.6827 18.5674 24.6827 15.656C24.6827 12.7447 22.3676 10.3759 19.5223 10.3759Z" fill="black"/>
<path d="M39.8694 16.6879C35.3709 16.6879 31.7146 12.9433 31.7146 8.34397C31.7146 3.74468 35.3744 0 39.8694 0C44.3644 0 48.0242 3.74468 48.0242 8.34397C48.0242 12.9433 44.3644 16.6879 39.8694 16.6879ZM39.8694 3.06384C37.024 3.06384 34.709 5.43262 34.709 8.34397C34.709 11.2553 37.024 13.6241 39.8694 13.6241C42.7147 13.6241 45.0298 11.2553 45.0298 8.34397C45.0298 5.43262 42.7147 3.06384 39.8694 3.06384Z" fill="black"/>
<path d="M34.709 8.68085H31.7146V24H34.709V8.68085Z" fill="black"/>
<path d="M66.1151 24H62.7603L59.1387 16.5851L56.4216 19.9752L53.7079 16.5851L50.0828 24H46.7419L53.098 10.9893L56.4216 15.1454L59.7556 10.9893L66.1151 24Z" fill="black"/>
<path d="M5.32678 24C4.22469 24 2.64779 23.7908 1.46946 22.7731C0.800576 22.195 0 21.117 0 19.2837V0.709229H2.99436V19.2837C2.99436 19.9965 3.2231 20.2802 3.39638 20.4291C4.04794 21 5.51046 20.9787 6.11349 20.8794L6.60562 23.9007C6.48432 23.922 5.99219 24 5.32331 24H5.32678Z" fill="black"/>
<path d="M7.8498 7.85815H1.05704V10.922H7.8498V7.85815Z" fill="black"/>
<path d="M56.4528 10.9787C53.8396 10.9787 51.7117 8.80143 51.7117 6.12767C51.7117 3.45391 53.8396 1.27661 56.4528 1.27661C59.0659 1.27661 61.1938 3.45391 61.1938 6.12767C61.1938 8.80143 59.0659 10.9787 56.4528 10.9787ZM56.4528 1.78725C54.1134 1.78725 52.2107 3.73406 52.2107 6.12767C52.2107 8.52129 54.1134 10.4681 56.4528 10.4681C58.7921 10.4681 60.6948 8.52129 60.6948 6.12767C60.6948 3.73406 58.7921 1.78725 56.4528 1.78725Z" fill="#43C4B2"/>
<path d="M60.9443 6.89362C60.5319 6.89362 60.1957 6.54965 60.1957 6.12766C60.1957 4.01419 58.5183 2.29788 56.4528 2.29788C54.3872 2.29788 52.7098 4.01419 52.7098 6.12766C52.7098 6.54965 52.3736 6.89362 51.9612 6.89362C51.5488 6.89362 51.2126 6.54965 51.2126 6.12766C51.2126 3.17021 53.5624 0.765961 56.4528 0.765961C59.3431 0.765961 61.6929 3.17021 61.6929 6.12766C61.6929 6.54965 61.3567 6.89362 60.9443 6.89362Z" fill="#43C4B2"/>
<path d="M82.9376 14.7234C82.4524 10.8794 79.2293 7.9007 75.3408 7.9007C71.1161 7.9007 67.6816 11.4184 67.6816 15.7376C67.6816 20.0567 71.1161 23.5745 75.3408 23.5745C77.1984 23.5745 78.9902 22.8865 80.3869 21.6347L79.1323 20.1702C78.0822 21.1099 76.7375 21.6276 75.3408 21.6276C72.4781 21.6276 70.0972 19.4787 69.6571 16.6737H82.9445C82.9827 16.3652 83 16.0532 83 15.7411C83 15.3972 82.9792 15.0603 82.9341 14.7269L82.9376 14.7234ZM69.6744 14.7234C70.1457 11.9574 72.5093 9.85105 75.3443 9.85105C78.1792 9.85105 80.5428 11.961 81.0141 14.7234H69.6744Z" fill="black" stroke="black" stroke-miterlimit="10"/>
</svg>
