<svg width="243" height="231" viewBox="0 0 243 231" fill="none" xmlns="http://www.w3.org/2000/svg">
<g id="Frame" clip-path="url(#clip0_986_3123)">
<g id="Shapes">
<path id="Vector" d="M133.145 99.2637C133.145 99.2637 128.686 101.484 117.325 103.932C105.964 106.38 95.276 106.38 95.276 106.38C95.276 106.38 92.1613 124.392 102.405 133.067L118.669 124.618L135.379 119.279L133.154 99.2637H133.145Z" fill="#E5E5E5"/>
<path id="Vector_2" d="M173.797 221.285C173.797 221.285 124.34 220.283 123.507 220.113C122.674 219.943 120.165 214.443 119.995 213.441C119.824 212.44 134.366 195.76 135.369 196.431C136.373 197.102 142.224 189.259 142.886 188.597C143.549 187.935 153.575 192.103 153.575 192.103L151.236 196.441C151.236 196.441 158.422 185.601 167.274 187.104C176.126 188.606 164.102 197.943 158.753 200.448L159.085 201.95H161.253C161.253 201.95 164.424 198.945 172.443 200.117C180.462 201.289 181.134 213.791 173.778 221.295L173.797 221.285Z" fill="#282828"/>
<path id="Vector_3" d="M144.505 177.313L151.852 180.422L146.484 189.381L147.175 193.473L153.575 192.093C153.575 192.093 161.688 180.196 163.563 177.304C165.437 174.412 165.219 172.853 150.962 167.967C136.704 163.081 144.505 177.304 144.505 177.304V177.313Z" fill="#543E36"/>
<path id="Vector_4" d="M70.9925 183.314L51.6132 197.102L45.6016 191.762L63.646 174.866C63.646 174.866 72.9996 174.195 70.9925 183.314Z" fill="#543E36"/>
<path id="Vector_5" d="M88.2511 145.74C88.2511 145.74 77.4491 157.477 62.5193 166.956C62.5193 166.956 61.9702 177.767 71.267 184.429C80.5638 191.092 80.3365 192.216 80.3365 192.216C80.3365 192.216 101.003 183.324 103.143 181.547C105.283 179.77 113.746 180.432 115.081 181.103C116.416 181.774 136.467 190.884 136.467 190.884C136.467 190.884 151.785 167.759 153.366 163.308C153.366 163.308 149.608 159.764 127.218 159.537L88.2416 145.75L88.2511 145.74Z" fill="#282828"/>
<path id="Vector_6" d="M101.051 131.782L88.2607 145.74C88.2607 145.74 92.8807 157.411 100.123 161.748C103.465 163.752 109.978 162.58 116.161 163.081C122.343 163.582 124.851 163.251 125.684 161.909C126.518 160.567 130.532 154.075 138.38 146.401C146.228 138.728 155.752 127.558 168.448 121.387C181.143 115.216 189.238 109.215 189.238 109.215L184.656 99.2638L157.759 101.04L152.581 104.046C152.581 104.046 151.909 110.387 150.915 112.721C150.915 112.721 143.398 104.216 142.564 103.214C141.731 102.212 141.23 100.492 141.731 99.2638C142.233 98.0353 133.154 99.2638 133.154 99.2638L101.06 131.782H101.051Z" fill="#E5E5E5"/>
<path id="Vector_7" d="M52.5219 196.46C52.5219 196.46 52.8438 197.442 47.4948 201.884C47.4948 201.884 40.2525 206.335 38.5862 206.439C36.92 206.543 33.0195 200.882 33.0195 200.882C33.0195 200.882 38.3685 197.991 42.0418 194.097C45.715 190.204 46.1789 191.224 46.1789 191.224C46.1789 191.224 46.5197 193.369 52.5219 196.46Z" fill="#E5E5E5"/>
<path id="Vector_8" d="M47.4949 201.269V229.619C47.4949 229.619 37.4692 230.791 29.2801 230.952C21.091 231.113 5.38494 230.782 3.88912 230.952C2.39331 231.122 -0.958074 224.781 1.21938 220.443C3.39683 216.106 8.82152 210.757 18.2603 212.108C19.4342 212.278 23.9974 207.109 23.9974 207.109C23.9974 207.109 18.5917 201.77 19.9265 198.434C21.2614 195.098 24.1015 192.594 27.6139 193.766C31.1262 194.937 37.6396 200.107 38.1414 203.443C38.6431 206.778 40.1484 202.772 40.1484 202.772C40.1484 202.772 44.6548 200.267 45.8287 199.766C47.0027 199.266 47.4949 199.095 47.4949 201.269Z" fill="#282828"/>
<path id="Vector_9" d="M98.9488 127.17C98.9488 127.17 101.344 132.462 102.291 131.007C103.237 129.552 107.725 117.484 100.066 110.935C96.9513 108.27 96.0329 106.644 95.7205 109.376C95.4081 112.107 96.3927 121.387 98.9488 127.161V127.17Z" fill="#A9A9A9"/>
<path id="Vector_10" d="M103.067 116.162C102.793 113.062 100.17 111.493 100.17 111.493C100.17 111.493 82.126 113.714 78.3391 115.046C74.5523 116.379 60.077 126.613 50.9411 128.607C41.8053 130.611 28.2199 131.717 25.323 128.607C22.426 125.498 16.4143 117.267 13.5174 119.932C10.6204 122.597 20.6462 130.545 20.6462 130.545C20.6462 130.545 11.7376 127.492 10.4027 127.719C9.06781 127.946 6.17085 133.276 22.8804 137.056C22.8804 137.056 17.3137 139.059 14.8617 138.833C12.4097 138.606 10.2891 139.031 14.5872 141.894C16.5942 143.227 25.2756 141.063 29.4601 141.063C33.6446 141.063 31.2873 142.102 40.4894 142.329C43.1591 142.395 44.1626 146.402 44.0017 148.065C43.8408 149.729 41.2751 156.4 49.7388 156.514C58.2025 156.627 56.7824 149.587 53.6393 149.067C52.3044 148.84 52.418 145.174 52.7494 144.285C53.0807 143.397 55.9114 142.064 56.2238 137.613C56.2238 137.613 77.5912 127.275 80.4882 125.602C83.3852 123.93 101.202 122.597 101.988 122.711C102.774 122.824 103.437 119.932 103.105 116.152L103.067 116.162Z" fill="#543E36"/>
<path id="Vector_11" d="M187.95 106.408C187.95 106.408 193.678 100.701 200.863 97.3647C208.049 94.0288 239.953 78.1903 242.131 74.8544C244.308 71.5185 236.318 68.8252 234.945 65.1774C234.444 63.8449 237.113 61.8415 236.28 58.5056C235.447 55.1697 230.429 54.338 228.763 46.3337C227.097 38.3295 228.593 31.6576 224.92 31.1568C221.246 30.6559 222.752 33.8217 219.239 31.1568C215.727 28.4918 214.809 32.4892 214.562 32.9051C214.316 33.3209 212.47 30.4858 209.299 32.4042C206.127 34.3226 206.544 36.9025 206.288 37.3277C206.033 37.753 204.035 36.4961 202.7 37.5734C201.365 38.6508 202.198 45.247 204.366 49.7453C206.534 54.2435 208.958 58.4961 208.958 58.4961C208.958 58.4961 208.712 59.5829 206.866 59.3277C205.02 59.0726 203.855 58.997 201.857 59.6585C199.86 60.32 197.114 64.0434 202.104 65.9145C204.111 66.6611 207.282 65.2435 210.378 65.9995C213.474 66.7556 216.73 71.4996 220.65 70.838C224.569 70.1765 224.91 69.4205 224.91 69.4205C224.91 69.4205 227.419 73.4935 227.665 73.8337C227.911 74.174 212.215 81.2616 209.535 82.0932C206.856 82.9248 184.854 99.6989 184.854 99.6989C184.854 99.6989 183.728 101.353 184.305 103.441C184.883 105.53 187.931 106.39 187.931 106.39L187.95 106.408Z" fill="url(#paint0_linear_986_3123)"/>
</g>
<g id="LineWork">
<path id="Vector_12" d="M192.286 91.1469C192.712 91.0051 191.065 90.7027 188.613 91.1469C186.161 91.591 186.047 90.9201 186.161 91.591C186.275 92.262 188.168 92.4794 192.286 91.1469Z" fill="#B08874"/>
<g id="Group">
<path id="Vector_13" d="M163.279 114.3C127.72 109.008 114.93 82.1218 114.93 82.1218C108.596 82.7456 100.028 76.499 100.757 68.8444C101.6 59.9139 105.264 58.0239 105.264 58.0239C105.245 57.9389 105.226 57.8538 105.216 57.7593C101.136 35.7971 113.51 4.10122 153.916 9.95088C176.845 13.2679 188.594 24.3907 194.18 34.9466C195.145 38.67 195.401 41.1648 195.401 41.1648C195.401 41.1648 195.959 41.2121 196.878 41.2877C198.724 46.92 198.942 51.834 198.43 54.5273C198.146 56.0016 197.929 57.3907 197.758 58.6949C196.935 64.8658 197.162 68.8916 197.162 68.8916C197.114 73.2009 193.763 75.1854 195.354 78.3985C199.245 86.3177 198.837 119.573 163.279 114.29V114.3Z" fill="#543E36"/>
<path id="Vector_14" d="M105.055 66.7463C105.055 66.7463 110.48 61.199 118.925 65.9147C121.897 67.5779 111.834 63.864 109.808 70.5736C109.316 72.2179 109.287 67.559 113.405 65.6028C113.405 65.6028 110.366 64.7523 107.649 66.0659C104.932 67.3794 103.9 67.6629 105.046 66.7557L105.055 66.7463Z" fill="#382924"/>
<path id="Vector_15" d="M136.932 50.8894C136.932 50.8894 124.369 58.1849 125.884 75.1669C127.398 92.1488 133.533 102.204 156.813 106.012C175.255 109.027 167.17 95.8155 185.669 106.154C188.66 107.827 189.834 108.101 193.233 102.988C193.233 102.988 187.647 129.014 167.558 127.634C147.469 126.254 136.941 112.892 129.538 102.648C122.135 92.404 119.777 84.1256 120.705 75.422C121.633 66.7184 124.7 61.3413 119.739 57.7218C114.779 54.1024 127.067 49.0088 127.067 49.0088L136.922 50.8799L136.932 50.8894Z" fill="#231F20"/>
<path id="Vector_16" d="M216.958 62.4657C204.527 63.2028 198.071 59.9331 198.071 59.9331C197.919 59.4511 197.796 59.0825 197.758 58.714C197.711 58.3549 197.73 57.9863 197.853 57.5044C198.629 54.6032 197.323 48.6307 197.323 48.6307C197.323 48.6307 197.152 48.5173 196.84 48.3093C196.821 48.2999 196.802 48.2904 196.783 48.281H196.774C185.773 51.2295 178.237 59.7346 172.992 60.4717C167.747 61.2183 157.172 55.4537 146.74 53.3841C143.899 52.8265 142.091 52.2784 140.946 51.8059C140.898 51.7776 140.86 51.7587 140.813 51.7398C140.387 51.5508 140.065 51.3807 139.81 51.22C138.333 50.275 139.346 49.7363 138.579 50.1521C138.2 50.36 136.373 51.1539 133.987 52.1556C128.335 54.5465 119.521 58.1092 119.001 57.8635C118.669 57.7028 118.366 57.5327 118.082 57.3532C118.063 57.3532 118.063 57.3343 118.045 57.3437C117.628 57.0791 117.259 56.8145 116.918 56.5688C116.757 56.7011 116.766 56.6255 116.549 56.5688C115.403 56.2002 113.841 55.9734 113.472 55.9262C113.443 55.9262 113.425 55.9167 113.396 55.9262C110.954 55.6238 107.659 55.7561 105.235 57.7879C105.122 57.8918 104.999 57.9958 104.885 58.0997H104.876L104.866 58.1092C101.183 48.2432 100.483 41.6659 102.509 35.0224V34.9846C104.345 28.9743 108.416 22.9262 114.513 14.3549C117.391 10.3008 121.235 7.19165 125.647 4.91416C125.647 4.91416 125.653 4.91101 125.666 4.90471C140.908 -2.94838 163.014 -0.803194 176.116 7.56021C187.429 14.7896 192.248 27.415 194.198 34.9657C195.164 38.6891 195.42 41.1839 195.42 41.1839C195.42 41.1839 195.978 41.2312 196.897 41.3068C198.648 41.458 201.696 41.6942 204.65 41.8927C204.934 41.9116 205.086 41.9116 205.086 41.9116C207.964 42.0911 210.69 42.214 211.987 42.1384C222.098 41.5336 232.626 45.9657 232.929 51.0026C233.232 56.049 229.407 61.7286 216.977 62.4752L216.958 62.4657Z" fill="#A994E4"/>
<path id="Vector_17" d="M195.401 41.1647C195.401 41.1647 182.516 36.364 160.647 40.7961C138.777 45.2188 128.373 47.0805 128.373 47.0805C128.373 47.0805 151.113 41.8923 161.063 39.5959C171.013 37.2901 182.658 36.5435 195.401 41.1741V41.1647Z" fill="#231F20"/>
<path id="Vector_18" d="M149.362 51.069C149.362 51.069 159.473 54.6317 168.23 57.5707C176.997 60.5097 179.022 54.6506 189.077 48.9143C199.131 43.1781 227.968 43.3954 231.897 51.0406C233.97 55.0853 228.943 58.9504 228.943 58.9504C228.943 58.9504 238.789 50.9461 227.92 46.5896C217.052 42.2331 200.333 42.6772 187.657 47.752C174.989 52.8267 179.676 59.2528 166.034 55.6901C152.391 52.1274 149.362 51.069 149.362 51.069Z" fill="#231F20"/>
<g id="Group_2">
<path id="Vector_19" d="M187.553 78.427C187.553 78.427 175.69 91.5155 154.039 77.3025C154.039 77.3025 157.324 77.1323 158.545 77.2647C159.767 77.397 158.706 75.592 146.749 76.915C143.436 77.2835 152.022 77.4159 152.411 77.3686C152.799 77.3214 161.045 84.5224 173.181 84.3806C185.318 84.2389 187.553 78.427 187.553 78.427Z" fill="#382924"/>
<path id="Vector_20" d="M176.116 87.981C176.599 87.9243 174.886 87.2439 172.14 87.225C169.395 87.2061 169.414 86.4595 169.395 87.2061C169.376 87.9527 171.383 88.5764 176.116 87.981Z" fill="#382924"/>
<path id="Vector_21" d="M176.079 70.2715C176.079 70.2715 175.009 72.8136 177.328 73.1255C179.648 73.4373 179.723 72.3411 180.339 73.7019C180.954 75.0628 184.59 75.6298 186.975 72.9648C189.361 70.2999 185.924 66.6521 181.588 67.8239C181.588 67.8239 182.545 67.3798 183.141 66.7466C183.738 66.1134 183.16 64.1289 183.16 64.1289C183.16 64.1289 184.4 66.0473 184.145 66.8411C183.889 67.6349 189.285 67.909 188.178 71.7174C187.07 75.5258 181.986 77.1796 179.458 73.7114C179.458 73.7114 173.257 74.6847 176.079 70.2621V70.2715Z" fill="#382924"/>
</g>
</g>
</g>
</g>
<defs>
<linearGradient id="paint0_linear_986_3123" x1="173.162" y1="86.2607" x2="222.788" y2="55.6192" gradientUnits="userSpaceOnUse">
<stop offset="0.24" stop-color="#3F2E29"/>
<stop offset="0.41" stop-color="#43312C"/>
<stop offset="0.6" stop-color="#523C34"/>
<stop offset="0.62" stop-color="#543E36"/>
</linearGradient>
<clipPath id="clip0_986_3123">
<rect width="242" height="231" fill="white" transform="translate(0.5)"/>
</clipPath>
</defs>
</svg>
