<svg width="174" height="50" viewBox="0 0 174 50" fill="none" xmlns="http://www.w3.org/2000/svg">
<path d="M41.3732 49.3408C32.0548 49.3408 24.481 41.7399 24.481 32.4043C24.481 23.0687 32.062 15.4678 41.3732 15.4678C50.6844 15.4678 58.2654 23.0687 58.2654 32.4043C58.2654 41.7399 50.6844 49.3408 41.3732 49.3408ZM41.3732 21.6867C35.4792 21.6867 30.6836 26.4949 30.6836 32.4043C30.6836 38.3137 35.4792 43.1219 41.3732 43.1219C47.2672 43.1219 52.0627 38.3137 52.0627 32.4043C52.0627 26.4949 47.2672 21.6867 41.3732 21.6867Z" fill="white"/>
<path d="M83.5211 34.499C74.2028 34.499 66.6289 26.8981 66.6289 17.5625C66.6289 8.2269 74.2099 0.625977 83.5211 0.625977C92.8323 0.625977 100.413 8.2269 100.413 17.5625C100.413 26.8981 92.8323 34.499 83.5211 34.499ZM83.5211 6.84492C77.6272 6.84492 72.8316 11.6531 72.8316 17.5625C72.8316 23.4719 77.6272 28.2801 83.5211 28.2801C89.4151 28.2801 94.2107 23.4719 94.2107 17.5625C94.2107 11.6531 89.4151 6.84492 83.5211 6.84492Z" fill="white"/>
<path d="M72.8316 18.2461H66.6289V49.3408H72.8316V18.2461Z" fill="white"/>
<path d="M137.888 49.3405H130.939L123.437 34.2898L117.808 41.171L112.187 34.2898L104.678 49.3405H97.7573L110.924 22.9316L117.808 31.3675L124.715 22.9316L137.888 49.3405Z" fill="white"/>
<path d="M11.9677 49.3409C9.68482 49.3409 6.41837 48.9162 3.9775 46.8504C2.59195 45.6772 0.933594 43.489 0.933594 39.7678V2.06543H7.13627V39.7678C7.13627 41.2145 7.61008 41.7903 7.96903 42.0927C9.31869 43.2515 12.3482 43.2083 13.5974 43.0068L14.6168 49.1393C14.3655 49.1825 13.3461 49.3409 11.9606 49.3409H11.9677Z" fill="white"/>
<path d="M17.1939 16.5762H3.12305V22.7951H17.1939V16.5762Z" fill="white"/>
<path d="M117.873 22.9101C112.46 22.9101 108.052 18.4906 108.052 13.0635C108.052 7.63627 112.46 3.2168 117.873 3.2168C123.286 3.2168 127.694 7.63627 127.694 13.0635C127.694 18.4906 123.286 22.9101 117.873 22.9101ZM117.873 4.25329C113.027 4.25329 109.086 8.20491 109.086 13.0635C109.086 17.922 113.027 21.8736 117.873 21.8736C122.718 21.8736 126.66 17.922 126.66 13.0635C126.66 8.20491 122.718 4.25329 117.873 4.25329Z" fill="#43C4B2"/>
<path d="M127.177 14.6185C126.322 14.6185 125.626 13.9204 125.626 13.0638C125.626 8.77389 122.151 5.29013 117.873 5.29013C113.594 5.29013 110.119 8.77389 110.119 13.0638C110.119 13.9204 109.423 14.6185 108.569 14.6185C107.714 14.6185 107.018 13.9204 107.018 13.0638C107.018 7.0608 111.885 2.18066 117.873 2.18066C123.86 2.18066 128.727 7.0608 128.727 13.0638C128.727 13.9204 128.031 14.6185 127.177 14.6185Z" fill="#43C4B2"/>
<path d="M173.798 30.1519C172.706 21.7232 165.484 15.3604 156.999 15.3604C147.659 15.3604 140.056 22.9829 140.056 32.3473C140.056 41.7117 147.659 49.3342 156.999 49.3342C161.112 49.3342 165.075 47.837 168.162 45.1234L168.973 44.4109L164.96 39.8114L164.149 40.524C162.168 42.2587 159.633 43.216 157.006 43.216C152.167 43.216 147.888 39.8978 146.575 35.32H173.711L173.826 34.3699C173.905 33.7149 173.948 33.0311 173.948 32.3473C173.948 31.6131 173.898 30.8717 173.805 30.1447L173.798 30.1519ZM146.611 29.209C147.967 24.66 152.153 21.4785 156.999 21.4785C161.844 21.4785 166.023 24.66 167.387 29.209H146.618H146.611Z" fill="white"/>
</svg>
