<svg width="180" height="163" viewBox="0 0 180 163" fill="none" xmlns="http://www.w3.org/2000/svg">
<path id="Vector" d="M-16.4945 18.6475C-13.2851 44.6286 6.93023 50.082 6.93023 50.082C18.4812 70.6142 34.528 70.2916 40.624 76.3903C56.0299 91.7917 71.1084 88.5788 71.1084 88.5788C79.1273 99.163 92.9285 98.2041 92.9285 98.2041C100.947 107.184 112.18 103.976 112.18 103.976C117.958 111.997 129.827 108.148 129.827 108.148C135.928 116.809 144.91 113.601 144.91 113.601C149.724 120.336 159.352 116.809 159.352 116.809C159.993 136.378 176.84 163 176.84 163C176.84 150.489 179.727 131.243 179.245 118.25C175.199 9.03128 66.6171 -1.56202 21.0496 -7.09726C-24.5179 -12.6325 -29.3274 -16 -29.3274 -16C-31.2548 11.908 -16.4945 18.6475 -16.4945 18.6475ZM-22.9132 -7.09726C-12.6442 -3.64796 13.0262 -2.20735 55.7071 4.53219C98.3835 11.2672 137.805 30.745 157.102 61.3116C176.404 91.8781 172.508 138.328 172.508 138.328C172.508 138.328 168.335 130.925 165.448 114.883C162.603 99.0948 157.27 81.4393 157.107 80.894C163.312 118.832 148.442 111.997 148.442 111.997C152.611 91.4645 150.688 68.0466 150.688 68.0466C151.329 112.315 136.246 106.543 136.246 106.543C144.269 81.8438 143.628 62.275 143.628 62.275C137.532 111.674 121.808 100.126 121.808 100.126C135.605 75.745 137.532 55.5355 137.532 55.5355C137.532 55.5355 128.222 86.0111 120.844 92.7506C113.462 99.4856 103.838 96.2772 103.838 96.2772C120.076 77.1811 133.155 52.3997 133.355 52.0135C125.272 61.4297 113.462 80.8803 103.838 88.5788C94.2104 96.2772 80.4138 86.6519 80.4138 86.6519C102.916 76.9675 126.636 47.5053 127.85 45.9783C126.736 47.2462 108.612 67.7466 87.4735 78.3127C65.6534 89.2195 48.6474 73.5 48.6474 73.5C83.9822 68.7691 120.249 41.7065 121.454 40.7976C120.144 41.5656 78.0772 66.1379 52.175 67.0877C25.8637 68.0466 17.522 53.2905 17.522 53.2905C84.2641 49.4413 112.503 35.3259 112.503 35.3259C84.5823 42.3836 29.714 49.7639 11.4215 44.6286C-6.8664 39.4978 -6.8664 25.3825 -6.8664 25.3825L101.27 28.2683C101.27 28.2683 27.4683 23.7783 2.43894 19.9291C-22.5905 16.0798 -22.9132 -7.09726 -22.9132 -7.09726Z" fill="white"/>
</svg>
