<svg width="180" height="163" viewBox="0 0 180 163" fill="none" xmlns="http://www.w3.org/2000/svg">
<path id="Vector" d="M209.327 -16C209.327 -16 204.518 -12.6325 158.95 -7.09726C113.383 -1.56202 4.80073 9.03128 0.754934 118.25C0.273075 131.243 3.15969 150.489 3.15969 163C3.15969 163 20.0066 136.378 20.6475 116.809C20.6475 116.809 30.2756 120.336 35.0897 113.601C35.0897 113.601 44.0723 116.809 50.1728 108.148C50.1728 108.148 62.042 111.997 67.8197 103.976C67.8197 103.976 79.0525 107.184 87.0714 98.2041C87.0714 98.2041 100.873 99.163 108.891 88.5788C108.891 88.5788 123.97 91.7917 139.376 76.3903C145.472 70.2916 161.519 70.6142 173.07 50.082C173.07 50.082 193.285 44.6286 196.494 18.6475C196.494 18.6475 211.255 11.908 209.327 -16ZM177.561 19.9291C152.531 23.7783 78.7298 28.2683 78.7298 28.2683L186.866 25.3825C186.866 25.3825 186.866 39.4978 168.578 44.6286C150.286 49.7639 95.4175 42.3836 67.497 35.3259C67.497 35.3259 95.7358 49.4413 162.478 53.2905C162.478 53.2905 154.136 68.0466 127.825 67.0877C101.923 66.1379 59.8554 41.5656 58.5462 40.7976C59.7509 41.7065 96.0176 68.7691 131.352 73.5C131.352 73.5 114.346 89.2195 92.5264 78.3127C70.7063 67.4058 53.2639 47.2462 52.1502 45.9783C53.364 47.5053 77.0842 76.9675 99.5861 86.6519C99.5861 86.6519 85.7894 96.2772 76.1614 88.5788C66.5378 80.8803 54.7277 61.4297 46.6452 52.0135C46.8452 52.3997 59.9236 77.1811 76.1614 96.2772C76.1614 96.2772 66.5378 99.4856 59.1554 92.7506C51.7775 86.0111 42.4676 55.5355 42.4676 55.5355C42.4676 55.5355 44.395 75.745 58.1916 100.126C58.1916 100.126 42.4676 111.674 36.3716 62.275C36.3716 62.275 35.7307 81.8438 43.7541 106.543C43.7541 106.543 28.6709 112.315 29.3119 68.0466C29.3119 68.0466 27.389 91.4645 31.5576 111.997C31.5576 111.997 16.6881 118.832 22.8932 80.894C22.7295 81.4393 17.3973 99.0948 14.5516 114.883C11.665 130.925 7.49187 138.328 7.49187 138.328C7.49187 138.328 3.59609 91.8781 22.8977 61.3116C42.1948 30.745 81.6164 11.2672 124.293 4.53219C166.974 -2.20735 192.644 -3.64796 202.913 -7.09726C202.913 -7.09726 202.59 16.0798 177.561 19.9291Z" fill="white"/>
</svg>
